
<svg version="1.0" xmlns="http://www.w3.org/2000/svg"
 width="90.000000pt" height="33.000000pt" viewBox="0 0 90.000000 33.000000"
 preserveAspectRatio="xMidYMid meet">

<g transform="translate(0.000000,33.000000) scale(0.100000,-0.100000)"
fill="#FFFFFF" stroke="none">
<path d="M190 165 c0 -57 4 -95 10 -95 6 0 10 38 10 95 0 57 -4 95 -10 95 -6
0 -10 -38 -10 -95z"/>
<path d="M460 225 c0 -24 -5 -35 -15 -35 -8 0 -15 -4 -15 -10 0 -5 7 -10 15
-10 11 0 15 -12 15 -50 0 -27 5 -50 10 -50 6 0 10 23 10 50 0 38 4 50 15 50 8
0 15 4 15 9 0 5 -7 11 -15 15 -9 3 -15 18 -15 36 0 16 -4 30 -10 30 -5 0 -10
-16 -10 -35z"/>
<path d="M865 240 c-3 -5 1 -10 10 -10 9 0 13 5 10 10 -3 6 -8 10 -10 10 -2 0
-7 -4 -10 -10z"/>
<path d="M35 215 c-25 -24 -32 -65 -19 -100 8 -19 55 -45 82 -45 25 0 74 39
66 51 -4 6 -12 5 -22 -4 -31 -27 -57 -29 -85 -6 -32 25 -35 61 -7 89 26 26 62
26 85 0 13 -15 22 -17 29 -10 17 17 -30 50 -71 50 -23 0 -42 -8 -58 -25z"/>
<path d="M746 166 c-27 -74 -32 -124 -7 -78 16 30 63 30 84 0 12 -17 16 -19
16 -7 1 25 -45 153 -56 156 -5 2 -22 -30 -37 -71z m54 -23 c0 -7 -9 -13 -20
-13 -23 0 -24 4 -9 32 9 17 13 18 20 7 5 -8 9 -20 9 -26z"/>
<path d="M230 151 c0 -53 17 -81 50 -81 28 0 52 42 48 84 -4 52 -22 49 -26 -4
-6 -78 -52 -73 -52 6 0 24 -4 44 -10 44 -5 0 -10 -22 -10 -49z"/>
<path d="M531 174 c-26 -34 -27 -54 -1 -82 21 -22 45 -27 74 -16 26 10 18 27
-9 22 -14 -3 -33 1 -42 8 -16 12 -12 13 29 14 56 0 67 13 41 48 -28 38 -65 40
-92 6z m79 -24 c0 -6 -16 -10 -35 -10 -38 0 -46 13 -18 29 19 10 53 -2 53 -19z"/>
<path d="M865 188 c-9 -24 -1 -113 10 -111 14 4 19 103 6 116 -7 7 -12 5 -16
-5z"/>
<path d="M351 176 c-16 -19 -3 -46 26 -57 13 -5 21 -14 18 -19 -5 -8 -11 -7
-21 1 -17 14 -29 6 -21 -16 8 -19 41 -20 57 0 14 17 4 55 -15 55 -16 0 -30 18
-21 27 3 3 12 0 20 -6 10 -8 16 -9 21 -1 17 28 -42 43 -64 16z"/>
<path d="M676 174 c-17 -17 -23 -104 -7 -104 6 0 11 19 13 43 2 32 8 44 26 52
12 5 22 13 22 17 0 14 -38 8 -54 -8z"/>
</g>
</svg>
